<svg width="40" height="40" viewBox="0 0 40 40" fill="none" xmlns="http://www.w3.org/2000/svg">
<g clip-path="url(#clip0)">
<path d="M9.33878 14.7234L4.0722 19.99L9.33878 25.2566L14.6054 19.99L9.33878 14.7234Z" fill="#D7B399"/>
<path d="M19.9944 4.08548L14.7278 9.35205L19.9944 14.6186L25.2609 9.35205L19.9944 4.08548Z" fill="#D7B399"/>
<path d="M19.9914 25.3938L14.7248 30.6604L19.9914 35.927L25.2579 30.6604L19.9914 25.3938Z" fill="#D7B399"/>
<path d="M30.647 14.7266L25.3804 19.9932L30.647 25.2597L35.9136 19.9932L30.647 14.7266Z" fill="#D7B399"/>
<path d="M28.6102 12.6866L23.3436 17.9531L25.3828 19.9923L30.6493 14.7257L28.6102 12.6866Z" fill="#D7B399"/>
<path d="M17.9547 23.3533L12.6881 28.6199L14.7273 30.659L19.9938 25.3924L17.9547 23.3533Z" fill="#D7B399"/>
<path d="M25.2587 9.35305L19.9921 14.6196L22.0313 16.6588L27.2978 11.3922L25.2587 9.35305Z" fill="#D7B399"/>
<path d="M14.6177 20.0054L9.35114 25.272L11.3903 27.3111L16.6569 22.0445L14.6177 20.0054Z" fill="#D7B399"/>
<path d="M11.3787 12.6864L9.3396 14.7256L14.6062 19.9922L16.6453 17.953L11.3787 12.6864Z" fill="#D7B399"/>
<path d="M14.727 9.34953L12.6879 11.3887L17.9544 16.6552L19.9936 14.6161L14.727 9.34953Z" fill="#D7B399"/>
<path d="M25.3796 19.9904L23.3405 22.0295L28.607 27.2961L30.6462 25.257L25.3796 19.9904Z" fill="#D7B399"/>
<path d="M22.046 23.342L20.0068 25.3811L25.2734 30.6477L27.3126 28.6085L22.046 23.342Z" fill="#D7B399"/>
<path d="M27.3029 32.697L25.2697 30.6638L20 35.9335L14.7303 30.6638L12.6971 32.697L20 39.9999L27.3029 32.697Z" fill="#D7B399"/>
<path d="M9.3361 14.7302L7.3029 12.697L0 19.9999L7.3029 27.3028L9.3361 25.2696L4.06639 19.9999L9.3361 14.7302Z" fill="#D7B399"/>
<path d="M32.6971 12.697L30.6639 14.7302L35.9336 19.9999L30.6639 25.2696L32.6971 27.3028L40 19.9999L32.6971 12.697Z" fill="#D7B399"/>
<path d="M25.2697 9.3361L27.3029 7.3029L20 0L12.6971 7.3029L14.7303 9.3361L20 4.06639L25.2697 9.3361Z" fill="#D7B399"/>
</g>
<defs>
<clipPath id="clip0">
<rect width="40" height="40" fill="white"/>
</clipPath>
</defs>
</svg>
