<svg width="40" height="40" viewBox="0 0 40 40" fill="none" xmlns="http://www.w3.org/2000/svg">
<g clip-path="url(#clip0)">
<path d="M9.33879 24.5495L4.77931 19.9901L9.33879 15.4306L13.8983 19.9901L9.33879 24.5495Z" fill="#D7B399" stroke="black"/>
<path d="M19.9944 13.9115L15.4349 9.35199L19.9944 4.79251L24.5539 9.35199L19.9944 13.9115Z" fill="#D7B399" stroke="black"/>
<path d="M19.9913 35.2199L15.4319 30.6604L19.9914 26.1009L24.5508 30.6604L19.9913 35.2199Z" fill="#D7B399" stroke="black"/>
<path d="M30.647 24.5526L26.0875 19.9932L30.647 15.4337L35.2065 19.9932L30.647 24.5526Z" fill="#D7B399" stroke="black"/>
<path d="M25.3828 19.2852L24.0507 17.9532L28.6102 13.3937L29.9423 14.7258L25.3828 19.2852Z" fill="#D7B399" stroke="black"/>
<path d="M14.7273 29.9519L13.3952 28.6198L17.9547 24.0603L19.2867 25.3924L14.7273 29.9519Z" fill="#D7B399" stroke="black"/>
<path d="M22.0313 15.9516L20.6992 14.6196L25.2587 10.0601L26.5907 11.3921L22.0313 15.9516Z" fill="#D7B399" stroke="black"/>
<path d="M11.3903 26.6039L10.0583 25.2719L14.6177 20.7124L15.9498 22.0444L11.3903 26.6039Z" fill="#D7B399" stroke="black"/>
<path d="M14.6062 19.2851L10.0467 14.7256L11.3788 13.3935L15.9382 17.953L14.6062 19.2851Z" fill="#D7B399" stroke="black"/>
<path d="M17.9544 15.9481L13.395 11.3887L14.727 10.0566L19.2865 14.6161L17.9544 15.9481Z" fill="#D7B399" stroke="black"/>
<path d="M28.607 26.5891L24.0476 22.0296L25.3796 20.6976L29.9391 25.257L28.607 26.5891Z" fill="#D7B399" stroke="black"/>
<path d="M25.2734 29.9406L20.714 25.3812L22.046 24.0491L26.6055 28.6086L25.2734 29.9406Z" fill="#D7B399" stroke="black"/>
<path d="M20 39.2929L13.4042 32.6971L14.7303 31.371L19.6464 36.2871L20 36.6407L20.3536 36.2871L25.2697 31.371L26.5958 32.6971L20 39.2929Z" fill="#D7B399" stroke="black"/>
<path d="M8.62899 14.7303L3.71284 19.6464L3.35928 20L3.71284 20.3535L8.62899 25.2697L7.3029 26.5958L0.707107 20L7.3029 13.4042L8.62899 14.7303Z" fill="#D7B399" stroke="black"/>
<path d="M36.2872 19.6464L31.371 14.7303L32.6971 13.4042L39.2929 20L32.6971 26.5958L31.371 25.2697L36.2872 20.3535L36.6407 20L36.2872 19.6464Z" fill="#D7B399" stroke="black"/>
<path d="M25.2697 8.62899L20.3536 3.71284L20 3.35928L19.6464 3.71284L14.7303 8.62899L13.4042 7.3029L20 0.707107L26.5958 7.3029L25.2697 8.62899Z" fill="#D7B399" stroke="black"/>
</g>
<defs>
<clipPath id="clip0">
<rect width="40" height="40" fill="white"/>
</clipPath>
</defs>
</svg>
