<svg width="91" height="30" viewBox="0 0 91 30" fill="none" xmlns="http://www.w3.org/2000/svg">
<path d="M21.8776 11.7682L22.026 11.9909H22.2936H28.6239C28.9231 11.9909 29.1336 12.0884 29.268 12.2229C29.4024 12.3573 29.5 12.5678 29.5 12.867V12.8678V12.8686V12.8694V12.8702V12.8711V12.8719V12.8727V12.8735V12.8743V12.8751V12.8759V12.8767V12.8775V12.8783V12.8791V12.8799V12.8807V12.8815V12.8823V12.8832V12.884V12.8848V12.8856V12.8864V12.8872V12.888V12.8888V12.8896V12.8904V12.8912V12.892V12.8928V12.8936V12.8944V12.8952V12.8961V12.8969V12.8977V12.8985V12.8993V12.9001V12.9009V12.9017V12.9025V12.9033V12.9041V12.9049V12.9057V12.9065V12.9073V12.9081V12.909V12.9098V12.9106V12.9114V12.9122V12.913V12.9138V12.9146V12.9154V12.9162V12.917V12.9178V12.9186V12.9194V12.9202V12.921V12.9219V12.9227V12.9235V12.9243V12.9251V12.9259V12.9267V12.9275V12.9283V12.9291V12.9299V12.9307V12.9315V12.9323V12.9331V12.9339V12.9348V12.9356V12.9364V12.9372V12.938V12.9388V12.9396V12.9404V12.9412V12.942V12.9428V12.9436V12.9444V12.9452V12.946V12.9469V12.9477V12.9485V12.9493V12.9501V12.9509V12.9517V12.9525V12.9533V12.9541V12.9549V12.9557V12.9565V12.9573V12.9581V12.9589V12.9598V12.9606V12.9614V12.9622V12.963V12.9638V12.9646V12.9654V12.9662V12.967V12.9678V12.9686V12.9694V12.9702V12.971V12.9718V12.9727V12.9735V12.9743V12.9751V12.9759V12.9767V12.9775V12.9783V12.9791V12.9799V12.9807V12.9815V12.9823V12.9831V12.9839V12.9847V12.9856V12.9864V12.9872V12.988V12.9888V12.9896V12.9904V12.9912V12.992V12.9928V12.9936V12.9944V12.9952V12.996V12.9968V12.9977V12.9985V12.9993V13.0001V13.0009V13.0017V13.0025V13.0033V13.0041V13.0049V13.0057V13.0065V13.0073V13.0081V13.0089V13.0097V13.0106V13.0114V13.0122V13.013V13.0138V13.0146V13.0154V13.0162V13.017V13.0178V13.0186V13.0194V13.0202V13.021V13.0218V13.0226V13.0235V13.0243V13.0251V13.0259V13.0267V13.0275V13.0283V13.0291V13.0299V13.0307V13.0315V13.0323V13.0331V13.0339V13.0347V13.0355V13.0364V13.0372V13.038V13.0388V13.0396V13.0404V13.0412V13.042V13.0428V13.0436V13.0444V13.0452V13.046V13.0468V13.0476V13.0484V13.0493V13.0501V13.0509V13.0517V13.0525V13.0533V13.0541V13.0549V13.0557V13.0565V13.0573V13.0581V13.0589V13.0597V13.0605V13.0613V13.0622V13.063V13.0638V13.0646V13.0654V13.0662V13.067V13.0678V13.0686V13.0694V13.0702V13.071V13.0718V13.0726V13.0734V13.0743V13.0751V13.0759V13.0767V13.0775V13.0783V13.0791V13.0799V13.0807V13.0815V13.0823V13.0831V13.0839V13.0847V13.0855V13.0863V13.0872V13.088V13.0888V13.0896V13.0904V13.0912V13.092V13.0928V13.0936V13.0944V13.0952V13.096V13.0968V13.0976V13.0984V13.0992V13.1001V13.1009V13.1017V13.1025V13.1033V13.1041V13.1049V13.1057V13.1065V13.1073V13.1081V13.1089V13.1097V13.1105V13.1113V13.1121V13.113V13.1138V13.1146V13.1154V13.1162V13.117V13.1178V13.1186V13.1194V13.1202V13.121V13.1218V13.1226V13.1234V13.1242V13.1251V13.1259V13.1267V13.1275V13.1283V13.1291V13.1299V13.1307V13.1315V13.1323V13.1331V13.1339V13.1347V13.1355V13.1363V13.1371V13.138V13.1388V13.1396V13.1404V13.1412V13.142V13.1428V13.1436V13.1444V13.1452V13.146V13.1468V13.1476V13.1484V13.1492V13.15V13.1509V13.1517V13.1525V13.1533V13.1541V13.1549V13.1557V13.1565V13.1573V13.1581V13.1589V13.1597V13.1605V13.1613V13.1621V13.1629V13.1638V13.1646V13.1654V13.1662V13.167V13.1678V13.1686V13.1694V13.1702V13.171V13.1718V13.1726V13.1734V13.1742V13.175V13.1758V13.1767V13.1775V13.1783V13.1791V13.1799V13.1807V13.1815V13.1823V13.1831V13.1839V13.1847V13.1855V13.1863V13.1871V13.1879V13.1888V13.1896V13.1904V13.1912V13.192V13.1928V13.1936V13.1944V13.1952V13.196V13.1968V13.1976V13.1984V13.1992V13.2V13.2008V13.2017V13.2025V13.2033V13.2041V13.2049V13.2057V13.2065V13.2073V13.2081V13.2089V13.2097V13.2105V13.2113V13.2121V13.2129V13.2137V13.2138L26.0768 25.9482L26.0739 25.9588L26.0715 25.9696C25.8499 26.9669 24.9621 27.6423 23.945 27.6423H6.05505C5.0633 27.6423 4.14934 26.8524 3.92544 25.9568L3.92551 25.9567L3.92322 25.9482L0.5 13.2138V13.2137V13.2129V13.2121V13.2113V13.2105V13.2097V13.2089V13.2081V13.2073V13.2065V13.2057V13.2049V13.2041V13.2033V13.2025V13.2017V13.2008V13.2V13.1992V13.1984V13.1976V13.1968V13.196V13.1952V13.1944V13.1936V13.1928V13.192V13.1912V13.1904V13.1896V13.1888V13.1879V13.1871V13.1863V13.1855V13.1847V13.1839V13.1831V13.1823V13.1815V13.1807V13.1799V13.1791V13.1783V13.1775V13.1767V13.1758V13.175V13.1742V13.1734V13.1726V13.1718V13.171V13.1702V13.1694V13.1686V13.1678V13.167V13.1662V13.1654V13.1646V13.1638V13.1629V13.1621V13.1613V13.1605V13.1597V13.1589V13.1581V13.1573V13.1565V13.1557V13.1549V13.1541V13.1533V13.1525V13.1517V13.1509V13.15V13.1492V13.1484V13.1476V13.1468V13.146V13.1452V13.1444V13.1436V13.1428V13.142V13.1412V13.1404V13.1396V13.1388V13.138V13.1371V13.1363V13.1355V13.1347V13.1339V13.1331V13.1323V13.1315V13.1307V13.1299V13.1291V13.1283V13.1275V13.1267V13.1259V13.1251V13.1242V13.1234V13.1226V13.1218V13.121V13.1202V13.1194V13.1186V13.1178V13.117V13.1162V13.1154V13.1146V13.1138V13.113V13.1121V13.1113V13.1105V13.1097V13.1089V13.1081V13.1073V13.1065V13.1057V13.1049V13.1041V13.1033V13.1025V13.1017V13.1009V13.1001V13.0992V13.0984V13.0976V13.0968V13.096V13.0952V13.0944V13.0936V13.0928V13.092V13.0912V13.0904V13.0896V13.0888V13.088V13.0872V13.0863V13.0855V13.0847V13.0839V13.0831V13.0823V13.0815V13.0807V13.0799V13.0791V13.0783V13.0775V13.0767V13.0759V13.0751V13.0743V13.0734V13.0726V13.0718V13.071V13.0702V13.0694V13.0686V13.0678V13.067V13.0662V13.0654V13.0646V13.0638V13.063V13.0622V13.0613V13.0605V13.0597V13.0589V13.0581V13.0573V13.0565V13.0557V13.0549V13.0541V13.0533V13.0525V13.0517V13.0509V13.0501V13.0493V13.0484V13.0476V13.0468V13.046V13.0452V13.0444V13.0436V13.0428V13.042V13.0412V13.0404V13.0396V13.0388V13.038V13.0372V13.0364V13.0355V13.0347V13.0339V13.0331V13.0323V13.0315V13.0307V13.0299V13.0291V13.0283V13.0275V13.0267V13.0259V13.0251V13.0243V13.0235V13.0226V13.0218V13.021V13.0202V13.0194V13.0186V13.0178V13.017V13.0162V13.0154V13.0146V13.0138V13.013V13.0122V13.0114V13.0106V13.0097V13.0089V13.0081V13.0073V13.0065V13.0057V13.0049V13.0041V13.0033V13.0025V13.0017V13.0009V13.0001V12.9993V12.9985V12.9977V12.9968V12.996V12.9952V12.9944V12.9936V12.9928V12.992V12.9912V12.9904V12.9896V12.9888V12.988V12.9872V12.9864V12.9856V12.9847V12.9839V12.9831V12.9823V12.9815V12.9807V12.9799V12.9791V12.9783V12.9775V12.9767V12.9759V12.9751V12.9743V12.9735V12.9727V12.9718V12.971V12.9702V12.9694V12.9686V12.9678V12.967V12.9662V12.9654V12.9646V12.9638V12.963V12.9622V12.9614V12.9606V12.9598V12.9589V12.9581V12.9573V12.9565V12.9557V12.9549V12.9541V12.9533V12.9525V12.9517V12.9509V12.9501V12.9493V12.9485V12.9477V12.9469V12.946V12.9452V12.9444V12.9436V12.9428V12.942V12.9412V12.9404V12.9396V12.9388V12.938V12.9372V12.9364V12.9356V12.9348V12.9339V12.9331V12.9323V12.9315V12.9307V12.9299V12.9291V12.9283V12.9275V12.9267V12.9259V12.9251V12.9243V12.9235V12.9227V12.9219V12.921V12.9202V12.9194V12.9186V12.9178V12.917V12.9162V12.9154V12.9146V12.9138V12.913V12.9122V12.9114V12.9106V12.9098V12.909V12.9081V12.9073V12.9065V12.9057V12.9049V12.9041V12.9033V12.9025V12.9017V12.9009V12.9001V12.8993V12.8985V12.8977V12.8969V12.8961V12.8952V12.8944V12.8936V12.8928V12.892V12.8912V12.8904V12.8896V12.8888V12.888V12.8872V12.8864V12.8856V12.8848V12.884V12.8832V12.8823V12.8815V12.8807V12.8799V12.8791V12.8783V12.8775V12.8767V12.8759V12.8751V12.8743V12.8735V12.8727V12.8719V12.8711V12.8702V12.8694V12.8686V12.8678V12.867C0.5 12.5678 0.597558 12.3573 0.731994 12.2229C0.86643 12.0884 1.07693 11.9909 1.37615 11.9909H7.98165H8.24924L8.39768 11.7682L14.4527 2.68566C14.6097 2.45017 14.84 2.35785 15.1376 2.35785C15.3412 2.35785 15.6158 2.50474 15.8516 2.72928L21.8776 11.7682ZM10.5961 11.2092L10.0631 11.9909H11.0092H19.2661H20.2121L19.6792 11.2092L15.5507 5.15416L15.1376 4.54826L14.7245 5.15416L10.5961 11.2092ZM11.8853 19.7478C11.8853 21.5377 13.3477 23.0001 15.1376 23.0001C16.9275 23.0001 18.3899 21.5377 18.3899 19.7478C18.3899 17.9579 16.9275 16.4955 15.1376 16.4955C13.3477 16.4955 11.8853 17.9579 11.8853 19.7478Z" fill="#212121" stroke="black"/>
<path d="M57.5 23.9952L46.25 17.5L57.5 11.0048L57.5 23.9952Z" fill="#D7B399" stroke="black"/>
<path d="M58.5 10.5H90.5V24.5H58.5V10.5Z" fill="#D7B399" stroke="black"/>
</svg>
